# xmcd CD database file
#
# Track frame offsets:
#	150
#	18310
#	45490
#
# Disc length: 1104 seconds
#
# Revision: 2
# Processed by: cddbd v1.5.1PL0 Copyright (c) Steve Scherf et al.
# Submitted via: CDex 1.60beta1
#
DISCID=18044e03
DTITLE=ハナレグミ - さらら
DYEAR=2003
DGENRE=Acoustic
TTITLE0=さらら
TTITLE1=Everyday People
TTITLE2=データ トラック
EXTD=YEAR: 2003
EXTT0=
EXTT1=
EXTT2=
PLAYORDER=
